<mxfile host="app.diagrams.net" modified="2024-02-08T21:06:31.232Z" agent="Mozilla/5.0 (Windows NT 10.0; Win64; x64) AppleWebKit/537.36 (KHTML, like Gecko) Chrome/121.0.0.0 Safari/537.36" etag="XhJY-NLg1KVvb9vtWO4I" version="23.1.2" type="github">
  <diagram name="Seite-1" id="6xaDlkBND-Z9a0DsL5Lj">
    <mxGraphModel dx="830" dy="442" grid="1" gridSize="10" guides="1" tooltips="1" connect="1" arrows="1" fold="1" page="1" pageScale="1" pageWidth="827" pageHeight="1169" math="0" shadow="0">
      <root>
        <mxCell id="0" />
        <mxCell id="1" parent="0" />
        <mxCell id="KtGIijuRkzR_cSvOx2hp-1" value="&lt;p style=&quot;line-height: 110%;&quot;&gt;Jupiter Notebook&lt;/p&gt;" style="shape=note;whiteSpace=wrap;html=1;backgroundOutline=1;darkOpacity=0.05;fillColor=#00998A;strokeColor=#FFFFFF;verticalAlign=top;fontStyle=1;fontColor=#FFFFFF;" vertex="1" parent="1">
          <mxGeometry x="170" y="203" width="260" height="380" as="geometry" />
        </mxCell>
        <mxCell id="KtGIijuRkzR_cSvOx2hp-6" style="edgeStyle=orthogonalEdgeStyle;rounded=0;orthogonalLoop=1;jettySize=auto;html=1;entryX=1.012;entryY=0.135;entryDx=0;entryDy=0;entryPerimeter=0;strokeColor=#FFFFFF;endArrow=block;endFill=1;startArrow=block;startFill=1;" edge="1" parent="1" source="KtGIijuRkzR_cSvOx2hp-2" target="KtGIijuRkzR_cSvOx2hp-5">
          <mxGeometry relative="1" as="geometry" />
        </mxCell>
        <mxCell id="KtGIijuRkzR_cSvOx2hp-17" style="edgeStyle=orthogonalEdgeStyle;rounded=0;orthogonalLoop=1;jettySize=auto;html=1;dashed=1;" edge="1" parent="1" source="KtGIijuRkzR_cSvOx2hp-2" target="KtGIijuRkzR_cSvOx2hp-15">
          <mxGeometry relative="1" as="geometry">
            <Array as="points">
              <mxPoint x="440" y="280" />
              <mxPoint x="440" y="323" />
            </Array>
          </mxGeometry>
        </mxCell>
        <mxCell id="KtGIijuRkzR_cSvOx2hp-2" value="data_collection" style="rounded=1;whiteSpace=wrap;html=1;" vertex="1" parent="1">
          <mxGeometry x="290" y="250" width="120" height="60" as="geometry" />
        </mxCell>
        <mxCell id="KtGIijuRkzR_cSvOx2hp-3" value="data_cleansing" style="rounded=1;whiteSpace=wrap;html=1;" vertex="1" parent="1">
          <mxGeometry x="290" y="330" width="120" height="60" as="geometry" />
        </mxCell>
        <mxCell id="KtGIijuRkzR_cSvOx2hp-12" value="" style="edgeStyle=orthogonalEdgeStyle;rounded=0;orthogonalLoop=1;jettySize=auto;html=1;strokeColor=#FFFFFF;endArrow=block;endFill=1;startArrow=none;startFill=0;" edge="1" parent="1" source="KtGIijuRkzR_cSvOx2hp-4" target="KtGIijuRkzR_cSvOx2hp-11">
          <mxGeometry relative="1" as="geometry" />
        </mxCell>
        <mxCell id="KtGIijuRkzR_cSvOx2hp-4" value="data_analytics" style="rounded=1;whiteSpace=wrap;html=1;" vertex="1" parent="1">
          <mxGeometry x="290" y="410" width="120" height="60" as="geometry" />
        </mxCell>
        <mxCell id="KtGIijuRkzR_cSvOx2hp-5" value="local file system" style="rounded=1;whiteSpace=wrap;html=1;" vertex="1" parent="1">
          <mxGeometry x="192" y="250" width="70" height="220" as="geometry" />
        </mxCell>
        <mxCell id="KtGIijuRkzR_cSvOx2hp-7" style="edgeStyle=orthogonalEdgeStyle;rounded=0;orthogonalLoop=1;jettySize=auto;html=1;entryX=1;entryY=0.5;entryDx=0;entryDy=0;endArrow=block;endFill=1;startArrow=block;startFill=1;strokeColor=#FFFFFF;" edge="1" parent="1" target="KtGIijuRkzR_cSvOx2hp-5">
          <mxGeometry relative="1" as="geometry">
            <mxPoint x="290" y="359.89" as="sourcePoint" />
            <mxPoint x="271" y="359.89" as="targetPoint" />
          </mxGeometry>
        </mxCell>
        <mxCell id="KtGIijuRkzR_cSvOx2hp-10" style="edgeStyle=orthogonalEdgeStyle;rounded=0;orthogonalLoop=1;jettySize=auto;html=1;entryX=1.011;entryY=0.86;entryDx=0;entryDy=0;entryPerimeter=0;startArrow=block;startFill=1;strokeColor=#FFFFFF;endArrow=block;endFill=1;" edge="1" parent="1" target="KtGIijuRkzR_cSvOx2hp-5">
          <mxGeometry relative="1" as="geometry">
            <mxPoint x="290" y="438.89" as="sourcePoint" />
            <mxPoint x="271" y="438.89" as="targetPoint" />
          </mxGeometry>
        </mxCell>
        <mxCell id="KtGIijuRkzR_cSvOx2hp-11" value="Visualization" style="sketch=0;pointerEvents=1;shadow=0;dashed=0;html=1;strokeColor=none;fillColor=#ffffff;aspect=fixed;labelPosition=center;verticalLabelPosition=bottom;verticalAlign=top;align=center;outlineConnect=0;shape=mxgraph.vvd.nsx_dashboard;fontColor=#FFFFFF;" vertex="1" parent="1">
          <mxGeometry x="325" y="488" width="50" height="46.5" as="geometry" />
        </mxCell>
        <mxCell id="KtGIijuRkzR_cSvOx2hp-14" value="Tagesschau" style="ellipse;shape=cloud;whiteSpace=wrap;html=1;fillColor=#dae8fc;strokeColor=#6c8ebf;" vertex="1" parent="1">
          <mxGeometry x="452" y="203" width="120" height="80" as="geometry" />
        </mxCell>
        <mxCell id="KtGIijuRkzR_cSvOx2hp-15" value="dpa" style="ellipse;shape=cloud;whiteSpace=wrap;html=1;fillColor=#dae8fc;strokeColor=#6c8ebf;" vertex="1" parent="1">
          <mxGeometry x="460" y="283" width="120" height="80" as="geometry" />
        </mxCell>
        <mxCell id="KtGIijuRkzR_cSvOx2hp-16" style="edgeStyle=orthogonalEdgeStyle;rounded=0;orthogonalLoop=1;jettySize=auto;html=1;entryX=0.083;entryY=0.588;entryDx=0;entryDy=0;entryPerimeter=0;dashed=1;" edge="1" parent="1" source="KtGIijuRkzR_cSvOx2hp-2" target="KtGIijuRkzR_cSvOx2hp-14">
          <mxGeometry relative="1" as="geometry">
            <Array as="points">
              <mxPoint x="440" y="280" />
              <mxPoint x="440" y="250" />
            </Array>
          </mxGeometry>
        </mxCell>
      </root>
    </mxGraphModel>
  </diagram>
</mxfile>
